<?xml version="1.0" standalone="no"?>
<!DOCTYPE svg PUBLIC "-//W3C//DTD SVG 20010904//EN"
 "http://www.w3.org/TR/2001/REC-SVG-20010904/DTD/svg10.dtd">
<svg version="1.0" xmlns="http://www.w3.org/2000/svg"
 width="1600.000000pt" height="800.000000pt" viewBox="0 0 1600.000000 800.000000"
 preserveAspectRatio="xMidYMid meet">

<g transform="translate(0.000000,800.000000) scale(0.100000,-0.100000)"
fill="#000000" stroke="none">
<path d="M2550 7491 c-14 -5 -39 -15 -55 -24 -17 -9 -472 -458 -1012 -999
l-982 -983 -16 -58 c-40 -138 36 -279 170 -316 55 -15 92 -14 156 5 53 15 79
40 984 945 l930 929 1235 0 1235 0 383 -383 382 -382 -438 -438 -437 -437
-1410 0 -1411 0 -27 56 c-84 171 -288 276 -476 244 -99 -17 -182 -59 -252
-129 -263 -263 -117 -709 252 -771 188 -32 392 73 476 244 l27 56 491 0 490 0
-395 -395 -395 -395 -645 0 -645 0 -24 53 c-34 74 -134 170 -218 210 -65 30
-74 32 -189 32 -118 0 -121 0 -195 -37 -98 -48 -169 -119 -216 -216 -32 -64
-37 -85 -41 -164 -11 -234 120 -415 345 -473 199 -52 422 50 509 232 l29 62
693 0 c582 1 697 3 720 15 15 8 265 253 557 545 l530 531 760 1 c418 0 768 4
779 8 10 4 232 221 492 482 l474 474 437 -437 c241 -240 453 -444 472 -453 19
-10 60 -20 92 -22 103 -10 195 37 246 125 24 40 28 58 28 122 0 64 -4 82 -27
120 -15 26 -442 460 -1005 1022 -953 951 -979 977 -1032 992 -49 14 -204 16
-1430 15 -757 0 -1387 -4 -1401 -8z m-1340 -1664 c0 -1 -24 -25 -52 -52 l-53
-50 50 53 c46 48 55 57 55 49z m-140 -140 c0 -1 -78 -79 -172 -172 l-173 -170
170 173 c158 160 175 177 175 169z m6095 -297 c21 -22 37 -40 34 -40 -3 0 -23
18 -44 40 -21 22 -37 40 -34 40 3 0 23 -18 44 -40z m-6412 -1127 c-7 -2 -21
-2 -30 0 -10 3 -4 5 12 5 17 0 24 -2 18 -5z m-176 -165 c-3 -7 -5 -2 -5 12 0
14 2 19 5 13 2 -7 2 -19 0 -25z"/>
<path d="M7063 4336 c-129 -32 -247 -124 -299 -235 l-29 -60 -693 0 c-582 -1
-697 -3 -720 -15 -15 -8 -265 -253 -557 -545 l-530 -531 -755 0 c-566 -1 -762
-4 -783 -13 -15 -7 -237 -221 -492 -477 l-465 -465 -442 441 c-398 396 -448
443 -492 458 -223 74 -414 -135 -317 -347 14 -31 287 -310 1002 -1024 970
-968 985 -982 1040 -997 50 -15 198 -16 1440 -14 l1384 3 50 27 c37 20 305
282 1026 1005 931 932 977 981 994 1032 65 200 -113 377 -322 321 -45 -12
-105 -69 -983 -946 l-935 -934 -1235 0 -1235 0 -382 382 -383 383 432 432 433
433 1410 0 1411 0 27 -55 c86 -176 292 -281 482 -246 244 44 413 278 375 518
-49 302 -371 473 -649 343 -78 -37 -176 -133 -210 -208 l-24 -52 -491 0 -491
0 395 395 395 395 645 0 645 -1 24 -50 c36 -79 121 -163 205 -204 233 -114
503 -20 615 214 65 138 54 312 -29 439 -104 162 -303 242 -487 198z m222 -336
c10 -11 16 -20 13 -20 -3 0 -13 9 -23 20 -10 11 -16 20 -13 20 3 0 13 -9 23
-20z m42 -122 c-3 -7 -5 -2 -5 12 0 14 2 19 5 13 2 -7 2 -19 0 -25z m-170
-144 c-3 -3 -12 -4 -19 -1 -8 3 -5 6 6 6 11 1 17 -2 13 -5z m40 0 c-3 -3 -12
-4 -19 -1 -8 3 -5 6 6 6 11 1 17 -2 13 -5z m-1140 -780 c-3 -3 -12 -4 -19 -1
-8 3 -5 6 6 6 11 1 17 -2 13 -5z m128 -44 c10 -11 16 -20 13 -20 -3 0 -13 9
-23 20 -10 11 -16 20 -13 20 3 0 13 -9 23 -20z m1005 -253 c0 -1 -118 -119
-262 -262 l-263 -260 260 263 c241 243 265 267 265 259z m-530 -531 c0 -2 -8
-10 -17 -17 -16 -13 -17 -12 -4 4 13 16 21 21 21 13z m-1367 -1353 c5 -7 -303
-7 -658 0 -77 1 39 4 257 5 218 1 399 -1 401 -5z"/>
<path d="M9766 3880 c-16 -5 -40 -19 -54 -32 -52 -49 -52 -43 -52 -664 0 -512
2 -580 16 -610 41 -85 168 -86 217 -1 9 16 13 134 17 446 l5 424 270 -414
c148 -228 286 -432 305 -453 42 -47 84 -66 146 -66 57 0 98 23 121 70 17 32
18 81 18 625 0 545 -1 592 -18 622 -51 93 -188 77 -217 -26 -6 -21 -10 -209
-11 -451 0 -325 -3 -411 -12 -397 -7 10 -142 214 -302 455 -159 240 -302 445
-316 455 -30 22 -92 30 -133 17z"/>
<path d="M11162 3875 c-22 -10 -39 -28 -52 -57 -19 -41 -20 -69 -19 -618 0
-419 3 -584 12 -610 33 -97 185 -108 234 -17 16 29 18 78 21 572 2 297 0 569
-3 604 -6 52 -12 69 -39 98 -38 42 -100 53 -154 28z"/>
<path d="M15195 3881 c-11 -5 -29 -19 -40 -31 -19 -20 -20 -38 -23 -251 -2
-126 -6 -229 -9 -229 -3 0 -25 18 -48 39 -24 22 -67 52 -97 68 -50 26 -60 28
-178 28 -117 0 -129 -2 -182 -28 -77 -38 -139 -101 -176 -178 -42 -90 -55
-158 -55 -279 1 -230 86 -396 241 -472 62 -31 74 -33 167 -33 88 0 107 3 158
27 31 15 81 50 110 77 30 28 57 51 60 51 4 0 7 -21 7 -46 0 -39 5 -51 34 -80
38 -38 86 -45 135 -19 56 29 56 27 56 675 0 648 0 646 -56 675 -31 16 -73 18
-104 6z m-273 -555 c70 -21 114 -60 150 -134 31 -64 33 -72 33 -182 0 -99 -3
-122 -23 -165 -45 -97 -118 -148 -213 -148 -140 2 -227 108 -237 289 -7 129
20 217 87 284 64 64 123 81 203 56z"/>
<path d="M8525 3861 c-55 -10 -82 -26 -102 -64 -17 -29 -18 -77 -18 -597 0
-617 -2 -600 58 -644 28 -20 41 -21 440 -24 227 -2 427 0 446 3 50 9 81 46 81
95 0 23 -5 50 -11 62 -24 44 -57 48 -414 48 l-335 0 0 195 0 195 305 0 c346 0
356 2 375 68 14 46 2 84 -37 109 -24 16 -58 18 -335 21 l-308 3 0 164 0 164
341 3 341 3 29 33 c55 62 27 143 -56 162 -45 11 -739 11 -800 1z"/>
<path d="M11714 3513 c-33 -6 -66 -48 -75 -95 -12 -62 -11 -735 1 -799 14 -74
43 -101 113 -107 49 -4 57 -1 86 24 44 40 51 93 51 364 0 256 13 331 67 382
57 54 171 61 218 14 39 -39 45 -86 45 -376 0 -151 5 -293 10 -315 18 -81 104
-119 180 -80 54 28 60 54 60 267 1 365 18 446 103 501 51 34 96 42 141 27 83
-27 95 -86 96 -468 0 -278 4 -298 60 -327 43 -22 102 -19 135 7 52 41 55 61
55 391 0 378 -9 434 -84 508 -57 57 -101 72 -213 77 -97 4 -106 3 -165 -25
-35 -17 -82 -49 -106 -72 l-43 -42 -42 47 c-61 69 -121 94 -229 94 -112 0
-179 -24 -252 -91 l-54 -49 -7 37 c-10 52 -21 71 -58 93 -31 19 -49 22 -93 13z"/>
<path d="M13650 3509 c-117 -17 -204 -62 -275 -141 -86 -95 -125 -206 -125
-353 0 -154 48 -280 142 -373 184 -184 543 -176 718 15 60 65 93 134 114 235
20 95 20 153 1 243 -33 154 -120 270 -249 331 -100 47 -205 61 -326 43z m155
-180 c59 -15 118 -68 151 -135 22 -45 28 -73 32 -153 5 -113 -12 -189 -59
-257 -76 -112 -259 -126 -351 -28 -116 124 -105 437 18 530 65 50 129 63 209
43z"/>
</g>
</svg>
